<?xml version="1.0" encoding="utf-8"?>
<!-- Generator: Adobe Illustrator 13.0.0, SVG Export Plug-In . SVG Version: 6.00 Build 14948)  -->
<!DOCTYPE svg PUBLIC "-//W3C//DTD SVG 1.1//EN" "http://www.w3.org/Graphics/SVG/1.1/DTD/svg11.dtd" [
	<!ENTITY ns_flows "http://ns.adobe.com/Flows/1.0/">
	<!ENTITY ns_extend "http://ns.adobe.com/Extensibility/1.0/">
	<!ENTITY ns_ai "http://ns.adobe.com/AdobeIllustrator/10.0/">
	<!ENTITY ns_graphs "http://ns.adobe.com/Graphs/1.0/">
]>
<svg version="1.1" id="Layer_1" xmlns:x="&ns_extend;" xmlns:i="&ns_ai;" xmlns:graph="&ns_graphs;"
	 xmlns="http://www.w3.org/2000/svg" xmlns:xlink="http://www.w3.org/1999/xlink" xmlns:a="http://ns.adobe.com/AdobeSVGViewerExtensions/3.0/"
	 x="0px" y="0px" width="100px" height="81.353px" viewBox="0 0 100 81.353" enable-background="new 0 0 100 81.353"
	 xml:space="preserve">
<g>
	<g>
		<linearGradient id="SVGID_1_" gradientUnits="userSpaceOnUse" x1="50" y1="81.3525" x2="50" y2="0">
			<stop  offset="0" style="stop-color:#1C8B87"/>
			<stop  offset="1" style="stop-color:#2CCEC8"/>
			<a:midPointStop  offset="0" style="stop-color:#1C8B87"/>
			<a:midPointStop  offset="0.5" style="stop-color:#1C8B87"/>
			<a:midPointStop  offset="1" style="stop-color:#2CCEC8"/>
		</linearGradient>
		<path fill="url(#SVGID_1_)" d="M64.064,0c0,0-0.084,0.543-0.148,0.789c-0.159,0.611-0.439,0.987-0.84,1.13
			c-0.534,0.19-1.243,0.206-2.128,0.042c-0.885-0.162-1.956-0.321-3.214-0.476c-1.258-0.155-2.711-0.188-4.36-0.104
			c-1.65,0.086-3.498,0.494-5.544,1.224c-1.959,0.699-3.595,1.599-4.91,2.696c-1.315,1.099-2.314,2.311-2.998,3.636
			c-0.684,1.327-1.074,2.699-1.173,4.117c-0.098,1.42,0.089,2.799,0.564,4.139c0.633,1.787,1.749,3.063,3.348,3.824
			c1.598,0.763,3.454,1.295,5.566,1.598c2.112,0.303,4.366,0.543,6.76,0.719c2.394,0.177,4.703,0.612,6.928,1.301
			c2.225,0.691,4.255,1.752,6.091,3.185c1.835,1.433,3.253,3.556,4.25,6.37c1.108,3.127,1.528,6.26,1.262,9.399
			c-0.267,3.14-1.201,6.089-2.804,8.851c-1.604,2.762-3.836,5.27-6.697,7.523c-2.861,2.254-6.294,4.096-10.299,5.526
			c-2.092,0.747-4.117,1.293-6.074,1.64c-1.958,0.347-3.769,0.54-5.434,0.582c-1.666,0.041-3.138-0.05-4.42-0.271
			c-0.466-0.081-0.897-0.168-1.295-0.264c0.021,0.109,0.036,0.222,0.058,0.33c0.402,2.031,0.856,3.758,1.36,5.182
			c1.368,3.861,3.378,6.436,6.032,7.727c2.654,1.291,5.907,1.248,9.764-0.129c2.815-1.005,5.125-2.167,6.927-3.486
			c1.802-1.318,3.271-2.613,4.406-3.885c1.135-1.27,2.052-2.368,2.75-3.293c0.698-0.924,1.392-1.51,2.085-1.758
			c0.346-0.124,0.667-0.08,0.962,0.132c0.294,0.211,0.535,0.58,0.721,1.104c0.159,0.45,0.305,1,0.438,1.649
			c0.061,0.3,0.151,0.927,0.151,0.927S100,44.049,100,39.813S64.064,0,64.064,0z M39.676,32.686
			c-0.177-0.049-0.354-0.096-0.53-0.148c-2.209-0.645-4.232-1.684-6.067-3.117c-1.836-1.432-3.261-3.578-4.273-6.438
			c-1.045-2.948-1.437-5.89-1.173-8.827c0.263-2.936,1.123-5.709,2.58-8.318c0.155-0.276,0.486-0.819,0.486-0.819S0,35.643,0,39.81
			c0,4.167,24.922,28.673,24.922,28.673s-0.396-4.653-0.312-7.1c0.106-3.141,0.547-6.307,1.32-9.496
			c0.773-3.189,2.039-6.227,3.798-9.114c1.759-2.886,4.051-5.509,6.875-7.869C37.548,34.116,38.577,33.379,39.676,32.686z
			 M44.322,57.863c2.038-0.048,4.415-0.557,7.129-1.526c2.447-0.874,4.443-1.926,5.988-3.156c1.544-1.23,2.716-2.555,3.518-3.973
			c0.801-1.418,1.242-2.896,1.324-4.435c0.081-1.539-0.139-3.045-0.661-4.519c-2.35-6.63-9.14-4.47-12.358-3.321
			c-2.773,0.99-5.055,2.595-6.848,4.354c-1.792,1.759-3.197,3.717-4.214,5.874c-1.018,2.158-1.687,4.433-2.009,6.828
			c-0.128,0.956-0.224,1.903-0.288,2.842c0.879,0.268,1.93,0.509,3.158,0.722C40.53,57.808,42.283,57.911,44.322,57.863z"/>
	</g>
</g>
</svg>
