<?xml version="1.0" standalone="no"?><!-- Generator: Gravit.io -->
<svg viewBox="0 0 350 365" width="350" height="365">
<g clip-path="url(#_clipPath_KUMfpQgAZhBw9ON1Gq6ibOdAlYoOaKic)">
<defs>
<filter id="OZFqbrjbdMuluALDjpVNR1M6uSHSnCCt" x="-200%" y="-200%" width="400%" height="400%">
<feOffset xmlns="http://www.w3.org/2000/svg" in="SourceAlpha" result="offOut" dx="0" dy="0"/>
<feGaussianBlur xmlns="http://www.w3.org/2000/svg" in="offOut" result="blurOut" stdDeviation="5"/>
<feComponentTransfer xmlns="http://www.w3.org/2000/svg" in="blurOut" result="opacOut">
<feFuncA xmlns="http://www.w3.org/2000/svg" type="table" tableValues="0 0.5"/>
</feComponentTransfer>
<feBlend xmlns="http://www.w3.org/2000/svg" in="SourceGraphic" in2="opacOut" mode="normal"/>
</filter>
</defs>
<g filter="url(#OZFqbrjbdMuluALDjpVNR1M6uSHSnCCt)">
<path d=" M 9.25 182.5 C 9.25 91.02 83.52 16.75 175 16.75 C 266.48 16.75 340.75 91.02 340.75 182.5 C 340.75 273.98 266.48 348.25 175 348.25 C 83.52 348.25 9.25 273.98 9.25 182.5 Z " fill="rgb(255,255,255)"/>
</g>
<path d=" M 9.25 182.5 C 9.25 91.02 83.52 16.75 175 16.75 C 266.48 16.75 340.75 91.02 340.75 182.5 C 340.75 273.98 266.48 348.25 175 348.25 C 83.52 348.25 9.25 273.98 9.25 182.5 Z " fill="rgb(235,235,235)"/>
<path d=" M 9.25 182.5 C 9.25 91.02 83.52 16.75 175 16.75 C 266.48 16.75 340.75 91.02 340.75 182.5 C 340.75 273.98 266.48 348.25 175 348.25 C 83.52 348.25 9.25 273.98 9.25 182.5 Z " fill="none" vector-effect="non-scaling-stroke" stroke-width="8" stroke="rgb(255,186,52)" stroke-linejoin="round" stroke-linecap="round" stroke-miterlimit="3"/>
</g>
</svg>