<?xml version="1.0" encoding="UTF-8" standalone="no"?>
<!-- Generator: Gravit.io -->
<svg xmlns="http://www.w3.org/2000/svg" xmlns:xlink="http://www.w3.org/1999/xlink" style="isolation:isolate" viewBox="0 0 120 98.417" width="120pt" height="98.417pt"><defs><clipPath id="_clipPath_bcwauPXNtucGpnign2MhDxRxcOlyBAT2"><rect width="120" height="98.417"/></clipPath></defs><g clip-path="url(#_clipPath_bcwauPXNtucGpnign2MhDxRxcOlyBAT2)"><path d=" M 90.647 98.417 L 90.647 98.417 Q 100.144 98.417 107.266 91.295 L 107.266 91.295 L 107.266 91.295 Q 114.388 84.173 114.388 75.108 L 114.388 75.108 L 114.388 75.108 Q 114.388 66.475 108.561 59.353 L 108.561 59.353 L 108.561 59.353 Q 102.734 52.23 94.532 51.799 L 94.532 51.799 L 94.532 51.799 Q 95.827 40.576 102.086 32.374 L 102.086 32.374 L 102.086 32.374 Q 108.345 24.173 120 15.971 L 120 15.971 L 110.935 0 L 110.935 0 Q 92.806 9.496 79.856 30 L 79.856 30 L 79.856 30 Q 66.906 50.504 66.906 71.223 L 66.906 71.223 L 66.906 71.223 Q 66.906 83.309 74.029 90.863 L 74.029 90.863 L 74.029 90.863 Q 81.151 98.417 90.647 98.417 L 90.647 98.417 Z  M 23.309 98.417 L 23.309 98.417 Q 32.806 98.417 39.712 91.295 L 39.712 91.295 L 39.712 91.295 Q 46.619 84.173 46.619 75.108 L 46.619 75.108 L 46.619 75.108 Q 46.619 66.475 40.791 59.353 L 40.791 59.353 L 40.791 59.353 Q 34.964 52.23 26.763 51.799 L 26.763 51.799 L 26.763 51.799 Q 28.489 40.576 34.748 32.374 L 34.748 32.374 L 34.748 32.374 Q 41.007 24.173 52.662 15.971 L 52.662 15.971 L 43.597 0 L 43.597 0 Q 25.468 9.496 12.734 30 L 12.734 30 L 12.734 30 Q 0 50.504 0 71.223 L 0 71.223 L 0 71.223 Q 0 83.309 6.906 90.863 L 6.906 90.863 L 6.906 90.863 Q 13.813 98.417 23.309 98.417 L 23.309 98.417 Z " fill="rgb(221,221,221)"/></g></svg>