<?xml version="1.0" encoding="UTF-8" standalone="no"?>
<!-- Generator: Gravit.io -->
<svg xmlns="http://www.w3.org/2000/svg" xmlns:xlink="http://www.w3.org/1999/xlink" style="isolation:isolate" viewBox="0 0 120 98.417" width="120pt" height="98.417pt"><defs><clipPath id="_clipPath_ygbRcYUslHVI36K14ZaOQRSbr7y1C1bm"><rect width="120" height="98.417"/></clipPath></defs><g clip-path="url(#_clipPath_ygbRcYUslHVI36K14ZaOQRSbr7y1C1bm)"><path d=" M 29.353 0 L 29.353 0 Q 19.856 0 12.734 7.122 L 12.734 7.122 L 12.734 7.122 Q 5.612 14.245 5.612 23.309 L 5.612 23.309 L 5.612 23.309 Q 5.612 31.942 11.439 39.065 L 11.439 39.065 L 11.439 39.065 Q 17.266 46.187 25.468 46.619 L 25.468 46.619 L 25.468 46.619 Q 24.173 57.842 17.914 66.043 L 17.914 66.043 L 17.914 66.043 Q 11.655 74.245 0 82.446 L 0 82.446 L 9.065 98.417 L 9.065 98.417 Q 27.194 88.921 40.144 68.417 L 40.144 68.417 L 40.144 68.417 Q 53.094 47.914 53.094 27.194 L 53.094 27.194 L 53.094 27.194 Q 53.094 15.108 45.971 7.554 L 45.971 7.554 L 45.971 7.554 Q 38.849 0 29.353 0 L 29.353 0 Z  M 96.691 0 L 96.691 0 Q 87.194 0 80.288 7.122 L 80.288 7.122 L 80.288 7.122 Q 73.381 14.245 73.381 23.309 L 73.381 23.309 L 73.381 23.309 Q 73.381 31.942 79.209 39.065 L 79.209 39.065 L 79.209 39.065 Q 85.036 46.187 93.237 46.619 L 93.237 46.619 L 93.237 46.619 Q 91.511 57.842 85.252 66.043 L 85.252 66.043 L 85.252 66.043 Q 78.993 74.245 67.338 82.446 L 67.338 82.446 L 76.403 98.417 L 76.403 98.417 Q 94.532 88.921 107.266 68.417 L 107.266 68.417 L 107.266 68.417 Q 120 47.914 120 27.194 L 120 27.194 L 120 27.194 Q 120 15.108 113.094 7.554 L 113.094 7.554 L 113.094 7.554 Q 106.187 0 96.691 0 L 96.691 0 Z " fill="rgb(221,221,221)"/></g></svg>